<svg width="51" height="51" viewBox="0 0 51 51" fill="none" xmlns="http://www.w3.org/2000/svg">
<path d="M48.0776 5.79028C48.1209 5.55286 48.1429 5.31299 48.1429 5.07251C48.1429 2.80505 46.2755 0.959961 43.98 0.959961C41.6844 0.959961 39.8171 2.80505 39.8171 5.07251C39.8171 5.31299 39.8391 5.55286 39.8824 5.79028C38.1578 6.46533 37 8.11206 37 9.98767C37 11.0417 37.3787 12.0616 38.0553 12.8685C37.3787 13.6748 37 14.6947 37 15.7494C37 18.2421 39.0532 20.2703 41.577 20.2703C42.1969 20.2703 42.7966 20.1448 43.355 19.91V22.5701H41.9582C40.9914 22.5701 40.0688 22.9863 39.4268 23.7126C38.7798 24.4438 38.4774 25.4204 38.5964 26.386L39.0424 30.3075H35.3044C35.094 25.555 31.3341 21.7189 26.6125 21.391L26.6082 20.1328C27.7576 20.0936 30.2098 19.8078 31.7983 18.1603C33.8848 15.9948 33.5689 12.4193 33.5546 12.2679C33.525 11.9615 33.2766 11.7217 32.9689 11.704C32.8185 11.693 29.2327 11.5117 27.1462 13.676C26.6259 14.2159 26.2551 14.8433 25.9916 15.4836C25.7363 14.8496 25.3759 14.2281 24.8671 13.6919C22.8099 11.5251 19.2318 11.6906 19.0825 11.7021C18.7764 11.7186 18.5277 11.9548 18.4951 12.2594C18.4789 12.4102 18.1234 15.9722 20.1805 18.1401C21.7577 19.8018 24.2229 20.0899 25.3582 20.1305L25.3625 21.3882C20.6153 21.6899 16.8267 25.5367 16.6155 30.3075H13.0948L13.3229 26.3915C13.4426 25.4204 13.1401 24.4438 12.4932 23.7126C11.8511 22.9863 10.9285 22.5701 9.96173 22.5701H8.56494V19.91C9.1233 20.1448 9.72301 20.2703 10.3429 20.2703C12.8667 20.2703 14.9199 18.2421 14.9199 15.7494C14.9199 14.6947 14.5412 13.6748 13.8646 12.8685C14.5412 12.0616 14.9199 11.0417 14.9199 9.98767C14.9199 8.11206 13.7621 6.46533 12.0375 5.79028C12.0809 5.55286 12.1028 5.31299 12.1028 5.07251C12.1028 2.80505 10.2355 0.959961 7.93994 0.959961C5.64441 0.959961 3.77704 2.80505 3.77704 5.07251C3.77704 5.31299 3.79901 5.55286 3.84235 5.79028C2.1178 6.46533 0.959961 8.11206 0.959961 9.98767C0.959961 11.0417 1.33868 12.0616 2.01526 12.8685C1.33868 13.6748 0.959961 14.6947 0.959961 15.7494C0.959961 18.2421 3.01318 20.2703 5.53699 20.2703C6.15688 20.2703 6.75658 20.1448 7.31494 19.91V22.5701H5.91815C4.95135 22.5701 4.02881 22.9863 3.38672 23.7126C2.73975 24.4438 2.43732 25.4204 2.55634 26.386L3.00235 30.3075H1.58496C1.23981 30.3075 0.959961 30.587 0.959961 30.9325V50.335C0.959961 50.6804 1.23981 50.96 1.58496 50.96H50.335C50.6801 50.96 50.96 50.6804 50.96 50.335V30.9325C50.96 30.587 50.6801 30.3075 50.335 30.3075H49.1349L49.363 26.3915C49.4826 25.4204 49.1802 24.4438 48.5332 23.7126C47.8911 22.9863 46.9686 22.5701 46.0018 22.5701H44.605V19.91C45.1633 20.1448 45.763 20.2703 46.3829 20.2703C48.9067 20.2703 50.96 18.2421 50.96 15.7494C50.96 14.6947 50.5812 13.6748 49.9047 12.8685C50.5812 12.0616 50.96 11.0417 50.96 9.98767C50.96 8.11206 49.8021 6.46533 48.0776 5.79028ZM5.53699 19.0203C3.70258 19.0203 2.20996 17.553 2.20996 15.7494C2.20996 14.8351 2.6073 13.9543 3.29974 13.3342C3.43219 13.2158 3.50787 13.0461 3.50787 12.8685C3.50787 12.6909 3.43219 12.5219 3.30005 12.4034C2.6073 11.7821 2.20996 10.902 2.20996 9.98767C2.20996 8.47888 3.25183 7.17395 4.74353 6.81384C4.91534 6.77295 5.06122 6.66064 5.14575 6.50562C5.23029 6.35059 5.24524 6.16748 5.18726 6.00085C5.08105 5.69629 5.02704 5.38379 5.02704 5.07251C5.02704 3.49414 6.3338 2.20996 7.93994 2.20996C9.54608 2.20996 10.8528 3.49414 10.8528 5.07251C10.8528 5.38379 10.7988 5.69629 10.6926 6.00085C10.6346 6.16748 10.6496 6.35059 10.7341 6.50562C10.8187 6.66064 10.9645 6.77295 11.1364 6.81384C12.6281 7.17395 13.6699 8.47888 13.6699 9.98767C13.6699 10.902 13.2726 11.7821 12.5798 12.4034C12.4477 12.5219 12.372 12.6909 12.372 12.8685C12.372 13.0461 12.4477 13.2158 12.5801 13.3342C13.2726 13.9543 13.6699 14.8351 13.6699 15.7494C13.6699 17.553 12.1773 19.0203 10.3429 19.0203C9.70481 19.0203 9.099 18.8337 8.56494 18.4972V8.81213C8.56494 8.46667 8.2851 8.18713 7.93994 8.18713C7.59479 8.18713 7.31494 8.46667 7.31494 8.81213V18.4972C6.78088 18.8337 6.17507 19.0203 5.53699 19.0203ZM28.0461 14.5439C29.2946 13.2482 31.3411 12.9979 32.3287 12.9552C32.3244 13.9421 32.152 15.9917 30.8983 17.2924C29.6498 18.5875 27.603 18.8378 26.6155 18.8805C26.6198 17.8936 26.7922 15.844 28.0461 14.5439ZM21.0872 17.2795C19.8589 15.985 19.7087 13.9379 19.7142 12.9546C20.6951 12.9985 22.7269 13.2531 23.9608 14.5525C25.1891 15.847 25.3392 17.8948 25.3337 18.8781C24.3529 18.8341 22.321 18.5796 21.0872 17.2795ZM25.96 22.6079C30.2943 22.6079 33.8356 26.0263 34.0544 30.3075H30.934C30.7213 27.7474 28.5737 25.728 25.96 25.728C25.6148 25.728 25.335 26.0076 25.335 26.353C25.335 26.6985 25.6148 26.978 25.96 26.978C27.8842 26.978 29.4726 28.4375 29.6805 30.3075H17.8655C18.0843 26.0263 21.6257 22.6079 25.96 22.6079ZM3.79779 26.2389C3.7218 25.623 3.91315 25.0035 4.323 24.5403C4.72797 24.0825 5.30933 23.8201 5.91815 23.8201H9.96173C10.5706 23.8201 11.1519 24.0825 11.5569 24.5403C11.9667 25.0035 12.1581 25.623 12.0784 26.2786L12.0299 27.1086H8.98914C8.64398 27.1086 8.36414 27.3882 8.36414 27.7336C8.36414 28.0791 8.64398 28.3586 8.98914 28.3586H11.9569L11.843 30.3075H4.26051L3.79779 26.2389ZM49.71 43.3544H2.20996V37.9131H49.71V43.3544ZM2.20996 49.71V44.6044H49.71V49.71H2.20996ZM49.71 36.6631H2.20996V31.5575H49.71V36.6631ZM47.5969 24.5403C48.0068 25.0035 48.1981 25.623 48.1185 26.2786L48.07 27.1086H45.0292C44.684 27.1086 44.4042 27.3882 44.4042 27.7336C44.4042 28.0791 44.684 28.3586 45.0292 28.3586H47.9969L47.8831 30.3075H40.3006L39.8378 26.2389C39.7618 25.623 39.9532 25.0035 40.363 24.5403C40.768 24.0825 41.3494 23.8201 41.9582 23.8201H46.0018C46.6106 23.8201 47.192 24.0825 47.5969 24.5403ZM48.6202 13.3342C49.3126 13.9543 49.71 14.8351 49.71 15.7494C49.71 17.553 48.2173 19.0203 46.3829 19.0203C45.7449 19.0203 45.139 18.8337 44.605 18.4972V8.81213C44.605 8.46667 44.3251 8.18713 43.98 8.18713C43.6348 8.18713 43.355 8.46667 43.355 8.81213V18.4972C42.8209 18.8337 42.2151 19.0203 41.577 19.0203C39.7426 19.0203 38.25 17.553 38.25 15.7494C38.25 14.8351 38.6473 13.9543 39.3398 13.3342C39.4722 13.2158 39.5479 13.0461 39.5479 12.8685C39.5479 12.6909 39.4722 12.5219 39.3401 12.4034C38.6473 11.7821 38.25 10.902 38.25 9.98767C38.25 8.47888 39.2919 7.17395 40.7836 6.81384C40.9554 6.77295 41.1013 6.66064 41.1858 6.50562C41.2703 6.35059 41.2853 6.16748 41.2273 6.00085C41.1211 5.69629 41.0671 5.38379 41.0671 5.07251C41.0671 3.49414 42.3738 2.20996 43.98 2.20996C45.5861 2.20996 46.8929 3.49414 46.8929 5.07251C46.8929 5.38379 46.8389 5.69629 46.7327 6.00085C46.6747 6.16748 46.6896 6.35059 46.7742 6.50562C46.8587 6.66064 47.0046 6.77295 47.1764 6.81384C48.6681 7.17395 49.71 8.47888 49.71 9.98767C49.71 10.902 49.3126 11.7821 48.6199 12.4034C48.4877 12.5219 48.412 12.6909 48.412 12.8685C48.412 13.0461 48.4877 13.2158 48.6202 13.3342Z" fill="white"/>
</svg>
