<svg width="50" height="51" viewBox="0 0 50 51" fill="none" xmlns="http://www.w3.org/2000/svg">
<path d="M49.9997 43.7347C49.9997 43.3896 49.7198 43.1097 49.3747 43.1097C49.0295 43.1097 48.7497 43.3896 48.7497 43.7347C48.7497 46.0776 46.9887 48.0147 44.7138 48.3197V42.2266C44.7138 41.8814 44.4339 41.6016 44.0888 41.6016C43.7436 41.6016 43.4638 41.8814 43.4638 42.2266V48.3197C41.1889 48.0147 39.4279 46.0776 39.4279 43.7347C39.4279 43.3896 39.148 43.1097 38.8029 43.1097C38.4577 43.1097 38.1779 43.3896 38.1779 43.7347C38.1779 46.075 39.5621 48.0944 41.5556 49.0408H27.533C29.5265 48.0944 30.9108 46.075 30.9108 43.7347C30.9108 43.3896 30.6309 43.1097 30.2858 43.1097C29.9406 43.1097 29.6608 43.3896 29.6608 43.7347C29.6608 46.0776 27.8998 48.0147 25.6248 48.3197V42.2266C25.6248 41.8814 25.345 41.6016 24.9998 41.6016C24.6547 41.6016 24.3749 41.8814 24.3749 42.2266V48.3197C22.0999 48.0147 20.3389 46.0776 20.3389 43.7347C20.3389 43.3896 20.0591 43.1097 19.7139 43.1097C19.3688 43.1097 19.0889 43.3896 19.0889 43.7347C19.0889 46.075 20.4732 48.0944 22.4667 49.0408H8.44405C10.4376 48.0944 11.8218 46.075 11.8218 43.7347C11.8218 43.3896 11.542 43.1097 11.1968 43.1097C10.8517 43.1097 10.5718 43.3896 10.5718 43.7347C10.5718 46.0776 8.81083 48.0147 6.53591 48.3197V42.2266C6.53591 41.8814 6.25607 41.6016 5.91091 41.6016C5.56576 41.6016 5.28592 41.8814 5.28592 42.2266V48.3197C3.011 48.0147 1.24999 46.0776 1.24999 43.7347C1.24999 43.3896 0.970148 43.1097 0.624996 43.1097C0.279844 43.1097 0 43.3896 0 43.7347C0 46.075 1.38423 48.0944 3.37778 49.0408H0.624996C0.279844 49.0408 0 49.3206 0 49.6658C0 50.0109 0.279844 50.2908 0.624996 50.2908H49.3747C49.7198 50.2908 49.9997 50.0109 49.9997 49.6658C49.9997 49.3206 49.7198 49.0408 49.3747 49.0408H46.6219C48.6155 48.0944 49.9997 46.075 49.9997 43.7347Z" fill="white"/>
<path d="M49.9997 29.9639C49.9997 29.6188 49.7198 29.3389 49.3747 29.3389C49.0295 29.3389 48.7497 29.6188 48.7497 29.9639C48.7497 32.3068 46.9887 34.2439 44.7138 34.5489V28.4561C44.7138 28.1109 44.4339 27.8311 44.0888 27.8311C43.7436 27.8311 43.4638 28.1109 43.4638 28.4561V34.5489C41.1889 34.2439 39.4279 32.3068 39.4279 29.9639C39.4279 29.6188 39.148 29.3389 38.8029 29.3389C38.4577 29.3389 38.1779 29.6188 38.1779 29.9639C38.1779 32.3044 39.5624 34.324 41.5563 35.2703H27.5324C29.5262 34.324 30.9108 32.3044 30.9108 29.9639C30.9108 29.6188 30.6309 29.3389 30.2858 29.3389C29.9406 29.3389 29.6608 29.6188 29.6608 29.9639C29.6608 32.3068 27.8998 34.2439 25.6248 34.5489V28.4561C25.6248 28.1109 25.345 27.8311 24.9998 27.8311C24.6547 27.8311 24.3749 28.1109 24.3749 28.4561V34.5489C22.0999 34.2439 20.3389 32.3068 20.3389 29.9639C20.3389 29.6188 20.0591 29.3389 19.7139 29.3389C19.3688 29.3389 19.0889 29.6188 19.0889 29.9639C19.0889 32.3044 20.4735 34.324 22.4673 35.2703H8.44344C10.4373 34.324 11.8218 32.3044 11.8218 29.9639C11.8218 29.6188 11.542 29.3389 11.1968 29.3389C10.8517 29.3389 10.5718 29.6188 10.5718 29.9639C10.5718 32.3068 8.81083 34.2439 6.53591 34.5489V28.4561C6.53591 28.1109 6.25607 27.8311 5.91091 27.8311C5.56576 27.8311 5.28592 28.1109 5.28592 28.4561V34.5489C3.011 34.2439 1.24999 32.3068 1.24999 29.9639C1.24999 29.6188 0.970148 29.3389 0.624996 29.3389C0.279844 29.3389 0 29.6188 0 29.9639C0 32.3044 1.38454 34.324 3.37839 35.2703H0.624996C0.279844 35.2703 0 35.5501 0 35.8953C0 36.2404 0.279844 36.5203 0.624996 36.5203H49.3747C49.7198 36.5203 49.9997 36.2404 49.9997 35.8953C49.9997 35.5501 49.7198 35.2703 49.3747 35.2703H46.6213C48.6152 34.324 49.9997 32.3044 49.9997 29.9639Z" fill="white"/>
<path d="M49.9997 16.1947C49.9997 15.8495 49.7198 15.5697 49.3747 15.5697C49.0295 15.5697 48.7497 15.8495 48.7497 16.1947C48.7497 18.5376 46.9887 20.4747 44.7138 20.7797V14.6865C44.7138 14.3414 44.4339 14.0615 44.0888 14.0615C43.7436 14.0615 43.4638 14.3414 43.4638 14.6865V20.7797C41.1889 20.4747 39.4279 18.5376 39.4279 16.1947C39.4279 15.8495 39.148 15.5697 38.8029 15.5697C38.4577 15.5697 38.1779 15.8495 38.1779 16.1947C38.1779 18.535 39.5621 20.5544 41.5556 21.5007H27.533C29.5265 20.5544 30.9108 18.535 30.9108 16.1947C30.9108 15.8495 30.6309 15.5697 30.2858 15.5697C29.9406 15.5697 29.6608 15.8495 29.6608 16.1947C29.6608 18.5376 27.8998 20.4747 25.6248 20.7797V14.6865C25.6248 14.3414 25.345 14.0615 24.9998 14.0615C24.6547 14.0615 24.3749 14.3414 24.3749 14.6865V20.7797C22.0999 20.4747 20.3389 18.5376 20.3389 16.1947C20.3389 15.8495 20.0591 15.5697 19.7139 15.5697C19.3688 15.5697 19.0889 15.8495 19.0889 16.1947C19.0889 18.535 20.4732 20.5544 22.4667 21.5007H8.44405C10.4376 20.5544 11.8218 18.535 11.8218 16.1947C11.8218 15.8495 11.542 15.5697 11.1968 15.5697C10.8517 15.5697 10.5718 15.8495 10.5718 16.1947C10.5718 18.5376 8.81083 20.4747 6.53591 20.7797V14.6865C6.53591 14.3414 6.25607 14.0615 5.91091 14.0615C5.56576 14.0615 5.28592 14.3414 5.28592 14.6865V20.7797C3.011 20.4747 1.24999 18.5376 1.24999 16.1947C1.24999 15.8495 0.970148 15.5697 0.624996 15.5697C0.279844 15.5697 0 15.8495 0 16.1947C0 18.535 1.38423 20.5544 3.37778 21.5007H0.624996C0.279844 21.5007 0 21.7806 0 22.1257C0 22.4709 0.279844 22.7507 0.624996 22.7507H49.3747C49.7198 22.7507 49.9997 22.4709 49.9997 22.1257C49.9997 21.7806 49.7198 21.5007 49.3747 21.5007H46.6219C48.6155 20.5544 49.9997 18.535 49.9997 16.1947Z" fill="white"/>
<path d="M49.9997 2.42418C49.9997 2.07903 49.7198 1.79919 49.3747 1.79919C49.0295 1.79919 48.7497 2.07903 48.7497 2.42418C48.7497 4.76708 46.9887 6.70417 44.7138 7.00919V0.916012C44.7138 0.57086 44.4339 0.291016 44.0888 0.291016C43.7436 0.291016 43.4638 0.57086 43.4638 0.916012V7.00919C41.1889 6.70417 39.4279 4.76708 39.4279 2.42418C39.4279 2.07903 39.148 1.79919 38.8029 1.79919C38.4577 1.79919 38.1779 2.07903 38.1779 2.42418C38.1779 4.76445 39.5621 6.7839 41.5556 7.73024H27.533C29.5265 6.7839 30.9108 4.76445 30.9108 2.42418C30.9108 2.07903 30.6309 1.79919 30.2858 1.79919C29.9406 1.79919 29.6608 2.07903 29.6608 2.42418C29.6608 4.76708 27.8998 6.70417 25.6248 7.00919V0.916012C25.6248 0.57086 25.345 0.291016 24.9998 0.291016C24.6547 0.291016 24.3749 0.57086 24.3749 0.916012V7.00919C22.0999 6.70417 20.3389 4.76708 20.3389 2.42418C20.3389 2.07903 20.0591 1.79919 19.7139 1.79919C19.3688 1.79919 19.0889 2.07903 19.0889 2.42418C19.0889 4.76445 20.4732 6.7839 22.4667 7.73024H8.44405C10.4376 6.7839 11.8218 4.76445 11.8218 2.42418C11.8218 2.07903 11.542 1.79919 11.1968 1.79919C10.8517 1.79919 10.5718 2.07903 10.5718 2.42418C10.5718 4.76708 8.81083 6.70417 6.53591 7.00919V0.916012C6.53591 0.57086 6.25607 0.291016 5.91091 0.291016C5.56576 0.291016 5.28592 0.57086 5.28592 0.916012V7.00919C3.011 6.70417 1.24999 4.76708 1.24999 2.42418C1.24999 2.07903 0.970148 1.79919 0.624996 1.79919C0.279844 1.79919 0 2.07903 0 2.42418C0 4.76445 1.38423 6.7839 3.37778 7.73024H0.624996C0.279844 7.73024 0 8.01009 0 8.35524C0 8.70039 0.279844 8.98023 0.624996 8.98023H49.3747C49.7198 8.98023 49.9997 8.70039 49.9997 8.35524C49.9997 8.01009 49.7198 7.73024 49.3747 7.73024H46.6219C48.6155 6.7839 49.9997 4.76445 49.9997 2.42418Z" fill="white"/>
</svg>
