<svg width="50" height="51" viewBox="0 0 50 51" fill="none" xmlns="http://www.w3.org/2000/svg">
<path d="M0.183542 50.7288C0.305416 50.8506 0.465414 50.9119 0.625413 50.9119C0.785411 50.9119 0.94541 50.8506 1.06728 50.7288C7.27223 44.5238 14.9072 39.5107 23.7677 35.8089V40.8145C19.0109 43.1107 14.1515 46.045 9.53284 49.8031C9.26534 50.0213 9.22471 50.415 9.44221 50.6825C9.56596 50.8344 9.74596 50.9131 9.92721 50.9131C10.066 50.9131 10.2053 50.8675 10.3216 50.7731C24.4583 39.2714 40.9113 35.577 49.4606 34.3983C49.8025 34.3508 50.0412 34.0358 49.9944 33.6939C49.9469 33.3514 49.63 33.1133 49.29 33.1602C43.645 33.9383 34.6039 35.8008 25.0183 40.2238V38.7901C25.2608 38.8114 25.5739 38.8307 25.9377 38.8307C27.2533 38.8307 29.1852 38.5832 30.4539 37.3145C31.7008 36.0676 31.9601 34.1826 31.9689 32.8689C41.8251 29.8952 49.3269 29.5446 49.4019 29.5414C49.7469 29.5271 50.0144 29.2352 50 28.8908C49.9856 28.5458 49.7006 28.2733 49.3494 28.2927C49.3012 28.2946 46.2825 28.4346 41.5744 29.2802V28.1152C41.7719 28.1308 42.0138 28.1427 42.2882 28.1427C43.4457 28.1427 45.1494 27.924 46.2713 26.8021C48.07 25.0027 47.5469 21.7078 47.5231 21.5678C47.4794 21.304 47.2731 21.0978 47.0094 21.054C46.87 21.0309 43.5744 20.5065 41.7751 22.3059C41.7026 22.3784 41.6394 22.4571 41.5744 22.534V19.329C41.7907 19.349 42.0776 19.3671 42.4119 19.3671C43.5694 19.3671 45.2738 19.1484 46.3956 18.0265C48.195 16.2272 47.6713 12.9322 47.6475 12.7922C47.6038 12.5285 47.3975 12.3222 47.1338 12.2785C46.9944 12.2547 43.6988 11.731 41.8994 13.5303C41.7807 13.6491 41.6738 13.7747 41.5744 13.9047V10.0466C42.2732 9.47911 44.1282 7.77475 44.1282 5.66289C44.1282 3.11854 41.4276 1.15855 41.3126 1.07668C41.0951 0.921055 40.8032 0.921055 40.5857 1.07668C40.4707 1.15855 37.7701 3.11854 37.7701 5.66289C37.7701 7.77475 39.6251 9.47911 40.3238 10.0466V10.8528C40.2932 10.8197 40.2676 10.7841 40.2357 10.7522C38.4363 8.95286 35.1414 9.47661 35.0014 9.50036C34.7376 9.54411 34.5314 9.75036 34.4876 10.0141C34.4645 10.1535 33.9408 13.4491 35.7395 15.2484C36.8614 16.3703 38.5651 16.589 39.7226 16.589C39.9476 16.589 40.1482 16.5803 40.3238 16.569V19.7703C40.2551 19.6878 40.1876 19.6046 40.1107 19.5278C38.312 17.729 35.0164 18.2528 34.8764 18.2759C34.6126 18.3197 34.4064 18.5259 34.3626 18.7897C34.3395 18.929 33.8158 22.2246 35.6145 24.024C36.7364 25.1459 38.4401 25.3646 39.5982 25.3646C39.8782 25.3646 40.1238 25.3515 40.3238 25.3358V29.5139C37.8513 29.9952 34.9926 30.6621 31.8983 31.5839C31.8839 31.4639 31.8714 31.3889 31.8683 31.3689C31.8245 31.1052 31.6183 30.8989 31.3545 30.8552C31.2658 30.8402 30.0483 30.6471 28.6364 30.8389C28.6214 30.8308 28.6114 30.8171 28.5952 30.8096C27.4289 30.2877 26.2296 29.7946 25.0171 29.3189V28.6714C25.2715 28.6983 25.6389 28.7258 26.0802 28.7258C27.3958 28.7258 29.3277 28.4783 30.5964 27.2096C32.6339 25.1721 32.0383 21.424 32.0114 21.2653C31.9676 21.0015 31.7614 20.7953 31.4976 20.7515C31.3389 20.7253 27.5914 20.1296 25.5533 22.1671C25.3464 22.374 25.1733 22.6021 25.0171 22.8384V18.044C25.7808 17.4309 27.9583 15.4709 27.9583 13.0416C27.9583 10.1597 24.8865 7.931 24.7558 7.83725C24.5383 7.68162 24.2465 7.68162 24.029 7.83725C23.8983 7.93037 20.8265 10.1597 20.8265 13.0416C20.8265 15.4709 23.004 17.4309 23.7677 18.044V19.2678C23.684 19.1659 23.5996 19.0634 23.5046 18.9684C21.4671 16.9303 17.719 17.5272 17.5603 17.5534C17.2965 17.5972 17.0903 17.8034 17.0465 18.0672C17.0203 18.2259 16.424 21.9734 18.4621 24.0115C19.7309 25.2802 21.6627 25.5277 22.9783 25.5277C23.279 25.5277 23.5471 25.5146 23.7683 25.4983V28.8483C23.3077 28.6758 22.8527 28.4927 22.389 28.3283C22.3677 28.3208 22.3465 28.3246 22.3252 28.3196C21.7815 28.0271 21.1952 27.8365 20.6202 27.7221C16.1884 26.2458 12.1491 25.3002 8.87847 24.6946V23.6859C9.02097 23.6946 9.17784 23.7021 9.35846 23.7021C10.3372 23.7021 11.7828 23.5165 12.7391 22.5602C14.2684 21.0309 13.8259 18.2472 13.8066 18.129C13.7628 17.8653 13.5566 17.659 13.2928 17.6153C13.1747 17.5959 10.4122 17.1578 8.87847 18.6678V16.4053C9.04347 16.4178 9.23409 16.429 9.46221 16.429C10.441 16.429 11.8866 16.2434 12.8428 15.2872C14.3722 13.7578 13.9297 10.9741 13.9103 10.856C13.8665 10.5922 13.6603 10.386 13.3966 10.3422C13.2784 10.3229 10.4947 9.88035 8.96534 11.4097C8.93409 11.441 8.90847 11.476 8.87847 11.5085V8.64912C9.49846 8.13599 10.9953 6.71788 10.9953 4.9654C10.9953 2.80229 8.71409 1.14668 8.61722 1.0773C8.39972 0.92168 8.10785 0.92168 7.89035 1.0773C7.79348 1.14668 5.51162 2.80229 5.51162 4.9654C5.51162 6.71788 7.00848 8.13662 7.62848 8.64912V9.01099C6.07974 7.60225 3.42164 8.02037 3.30664 8.03975C3.04289 8.0835 2.83664 8.28974 2.79289 8.55349C2.77352 8.67099 2.33102 11.4553 3.86039 12.9847C4.81663 13.9409 6.26224 14.1266 7.24098 14.1266C7.38098 14.1266 7.51035 14.1222 7.62848 14.1166V16.3747C6.09724 14.8509 3.32101 15.2922 3.20289 15.3122C2.93914 15.3559 2.73289 15.5622 2.68915 15.8259C2.66977 15.9434 2.22727 18.7278 3.75664 20.2571C4.71288 21.2134 6.15849 21.399 7.13723 21.399C7.32286 21.399 7.48285 21.3915 7.62785 21.3821V24.4709C3.36789 23.749 0.696037 23.639 0.647913 23.6371C0.314166 23.6302 0.0129179 23.8946 0.000418015 24.239C-0.0120819 24.584 0.257291 24.874 0.602288 24.8865C0.678537 24.889 7.60035 25.1727 17.0196 27.9083C16.9634 27.9852 16.9184 28.0714 16.9021 28.1702C16.8815 28.2927 16.5284 30.5421 17.2959 32.5008C10.5578 30.1721 4.621 29.0439 0.711037 28.5046C0.37104 28.4589 0.0535427 28.6964 0.0066681 29.0383C-0.0402065 29.3802 0.198542 29.6958 0.540414 29.7427C4.69788 30.3158 11.1791 31.5627 18.4721 34.2451C19.2878 34.9833 20.3309 35.3458 21.314 35.5076C19.519 36.3133 17.7753 37.1726 16.0859 38.0876C11.1709 36.167 6.01037 34.6751 0.744161 33.6545C0.404789 33.5908 0.0772921 33.8108 0.0116677 34.1495C-0.0539567 34.4883 0.167917 34.8164 0.506664 34.882C5.35287 35.8214 10.106 37.1695 14.6572 38.8832C13.0228 39.8151 11.4397 40.7988 9.91221 41.8338C6.95536 40.7532 3.88351 39.8139 0.775411 39.0451C0.441039 38.9614 0.101042 39.1664 0.018543 39.5014C-0.0645813 39.8363 0.139792 40.1757 0.474789 40.2582C3.24852 40.9438 5.98974 41.7732 8.64722 42.7132C5.59474 44.8826 2.76602 47.26 0.182916 49.8431C-0.0608316 50.0894 -0.0608313 50.4844 0.183542 50.7288ZM42.6582 23.1896C43.6688 22.1796 45.4919 22.1759 46.3425 22.2377C46.4156 23.2271 46.33 24.974 45.3863 25.9177C44.3775 26.9271 42.5601 26.9315 41.7057 26.8696C41.6444 26.0171 41.6494 24.1984 42.6582 23.1896ZM40.3038 15.3172C39.4495 15.3784 37.632 15.3734 36.6232 14.3653C35.6126 13.3547 35.6095 11.5322 35.6714 10.681C36.662 10.6091 38.4082 10.6941 39.3513 11.6372C40.3601 12.6453 40.3657 14.4641 40.3038 15.3172ZM40.1788 24.0921C39.3238 24.1521 37.5076 24.1484 36.4982 23.1402C35.4876 22.1296 35.4845 20.3071 35.5464 19.4553C36.5364 19.3821 38.2826 19.4678 39.2263 20.4115C40.2357 21.4209 40.2407 23.239 40.1788 24.0921ZM42.7826 14.4147C43.7938 13.4041 45.6163 13.4003 46.4669 13.4628C46.54 14.4522 46.4544 16.199 45.5107 17.1428C44.5019 18.1522 42.6851 18.1572 41.8301 18.0947C41.7688 17.2415 41.7738 15.4234 42.7826 14.4147ZM39.0195 5.66352C39.0195 4.23415 40.3057 2.94354 40.9513 2.38542C41.7026 3.03291 42.8775 4.32853 42.8775 5.66352C42.8775 7.09038 41.5957 8.37974 40.9488 8.93911C40.3019 8.37974 39.0195 7.09038 39.0195 5.66352ZM26.4377 23.0502C27.6596 21.829 29.8733 21.8559 30.8314 21.9328C30.9108 22.8896 30.9395 25.0984 29.7133 26.3252C28.4914 27.5465 26.2777 27.5208 25.3196 27.4427C25.2396 26.4858 25.2108 24.2771 26.4377 23.0502ZM22.0765 13.041C22.0765 11.3141 23.6596 9.76786 24.3927 9.14474C25.1252 9.76786 26.7089 11.3141 26.7089 13.041C26.7089 14.7678 25.1258 16.314 24.3927 16.9372C23.6596 16.3147 22.0765 14.7678 22.0765 13.041ZM23.7383 24.2446C22.7783 24.3221 20.5665 24.3484 19.3453 23.1271C18.124 21.9059 18.1503 19.6934 18.2278 18.7347C19.1871 18.6572 21.3996 18.6309 22.6208 19.8521C23.534 20.7653 23.7496 22.2315 23.7677 23.3146V23.3746C23.7708 23.7146 23.7565 24.0165 23.7383 24.2446ZM9.74471 19.5665C10.516 18.7953 11.8941 18.759 12.6172 18.8022C12.6578 19.5253 12.6203 20.9109 11.8547 21.6765C11.0828 22.4484 9.70471 22.4846 8.98034 22.4409C8.93784 21.719 8.97284 20.339 9.74471 19.5665ZM9.84846 12.2935C10.6197 11.5222 11.9978 11.486 12.7209 11.5291C12.7616 12.2522 12.7241 13.6378 11.9584 14.4034C11.1872 15.1747 9.80783 15.2103 9.08597 15.1678C9.04534 14.4447 9.08284 13.0597 9.84846 12.2935ZM7.5141 20.1365C6.79098 20.1753 5.40537 20.1396 4.63975 19.374C3.86851 18.6028 3.83289 17.224 3.87539 16.5015C4.59725 16.4603 5.98349 16.4978 6.74973 17.264C7.5216 18.0359 7.5566 19.414 7.5141 20.1365ZM6.76098 4.9654C6.76098 3.87353 7.71223 2.87291 8.25285 2.39292C8.79347 2.87354 9.74471 3.87353 9.74471 4.9654C9.74471 6.05726 8.79347 7.05788 8.25285 7.53787C7.71223 7.05788 6.76098 6.05726 6.76098 4.9654ZM7.61785 12.8641C6.89411 12.9047 5.50912 12.8672 4.7435 12.1016C3.97226 11.3303 3.93663 9.9516 3.97913 9.22911C4.70038 9.18724 6.08724 9.22536 6.85348 9.9916C7.5066 10.6447 7.63035 11.7297 7.62785 12.4866V12.5897C7.62598 12.6878 7.62285 12.781 7.61785 12.8641ZM18.084 28.8383C19.0446 28.7621 21.2565 28.7352 22.4771 29.9558C23.6983 31.177 23.6721 33.3895 23.5946 34.3483C22.6365 34.427 20.4227 34.4526 19.2015 33.2308C17.9803 32.0089 18.0065 29.7971 18.084 28.8383ZM30.6864 32.037C30.7639 32.9958 30.7902 35.2089 29.5689 36.4301C28.3477 37.6507 26.1352 37.6232 25.1758 37.5476C25.0983 36.5889 25.0721 34.3758 26.2933 33.1545C27.5152 31.9333 29.7252 31.9595 30.6864 32.037ZM26.7208 31.3733C26.2464 31.592 25.7971 31.8833 25.4096 32.2708C25.2646 32.4158 25.1365 32.5708 25.0171 32.7308V30.6546C25.5946 30.8852 26.1546 31.132 26.7208 31.3733Z" fill="white"/>
<path d="M20.4258 50.9115C20.5421 50.9115 20.6596 50.8797 20.764 50.8115C31.2251 44.0672 42.1619 40.9573 49.495 39.536C49.8337 39.4704 50.055 39.1423 49.99 38.8035C49.9243 38.4648 49.5962 38.2441 49.2575 38.3085C41.8169 39.751 30.7158 42.9085 20.0871 49.7609C19.7971 49.9478 19.7134 50.3347 19.9009 50.6247C20.019 50.8103 20.2202 50.9115 20.4258 50.9115Z" fill="white"/>
<path d="M49.982 44.1566C49.8988 43.821 49.5576 43.6153 49.2251 43.7003C43.2745 45.1716 37.5902 47.2153 32.3302 49.7734C32.0196 49.9247 31.8909 50.2984 32.0415 50.609C32.1496 50.8315 32.3721 50.9603 32.604 50.9603C32.6959 50.9603 32.789 50.9403 32.8771 50.8971C38.0583 48.3772 43.6589 46.3634 49.5251 44.9128C49.8601 44.8309 50.0645 44.4922 49.982 44.1566Z" fill="white"/>
</svg>
