<svg width="46" height="51" viewBox="0 0 46 51" fill="none" xmlns="http://www.w3.org/2000/svg">
<path d="M43.8122 42.2071L42.5796 20.8863C43.4205 20.3503 43.9831 19.4152 43.9831 18.3458V14.7086C43.9831 13.0447 42.6299 11.6915 40.9667 11.6915H40.9193C40.7696 8.65553 38.2601 6.2293 35.1877 6.2293C34.3838 6.2293 33.5928 6.39899 32.8615 6.72431C31.8202 3.33919 28.6591 0.959961 25.0531 0.959961C22.202 0.959961 19.6006 2.42485 18.1143 4.82545C16.907 4.15587 15.5532 3.80491 14.161 3.80491C9.75118 3.80491 6.15594 7.31805 6.00433 11.6915H5.95695C4.29369 11.6915 2.9405 13.0447 2.9405 14.7086V18.3458C2.9405 19.4152 3.50311 20.3503 4.34405 20.8863L3.1114 42.2071L2.03776 44.4264C1.35475 45.1485 0.97998 46.089 0.97998 47.087C0.97998 48.1222 1.38283 49.0951 2.11466 49.827C3.62533 51.3388 6.08452 51.3364 7.59397 49.827L8.26782 49.1525C10.6416 49.7031 24.6337 52.6426 38.6595 49.1562L39.3297 49.827C40.0847 50.5826 41.0772 50.9598 42.069 50.9598C43.0615 50.9598 44.0539 50.5826 44.809 49.827C45.5408 49.0951 45.9436 48.1222 45.9436 47.087C45.9436 46.089 45.5689 45.1485 44.8859 44.4264L43.8122 42.2071ZM14.161 5.05495C15.53 5.05495 16.8558 5.45596 17.9941 6.21465C18.1424 6.31353 18.3255 6.34405 18.4983 6.2995C18.6704 6.25494 18.8157 6.13836 18.8968 5.97966C20.0901 3.65475 22.4486 2.21 25.0531 2.21C28.3442 2.21 31.1977 4.54956 31.8392 7.77354C31.8795 7.97558 32.0162 8.14465 32.206 8.22583C32.3952 8.30823 32.6125 8.28992 32.7865 8.17944C33.5091 7.72166 34.3393 7.47934 35.1877 7.47934C37.571 7.47934 39.5213 9.34487 39.6693 11.6915H7.25438C7.40521 8.00785 10.4409 5.05495 14.161 5.05495ZM4.19054 14.7086C4.19054 13.7344 4.9828 12.9416 5.95695 12.9416H40.9667C41.9408 12.9416 42.7331 13.7344 42.7331 14.7086V18.3458C42.7331 19.32 41.9408 20.1128 40.9667 20.1128H5.95695C4.9828 20.1128 4.19054 19.32 4.19054 18.3458V14.7086ZM43.9251 48.9431C43.4295 49.4388 42.7703 49.7116 42.0696 49.7116C41.3683 49.7116 40.7091 49.4388 40.2135 48.9431L39.2924 48.0215C39.1368 47.8658 38.9085 47.803 38.6955 47.8579C23.5839 51.7295 8.38074 47.897 8.22937 47.8585C8.01269 47.8017 7.78685 47.8652 7.6312 48.0215L6.71015 48.9431C6.21453 49.4388 5.55533 49.7116 4.85401 49.7116C4.1533 49.7116 3.4941 49.4388 2.99848 48.9431C2.50286 48.4475 2.23002 47.7883 2.23002 47.087C2.23002 46.3863 2.50286 45.7271 2.99848 45.2315C3.04792 45.182 3.08882 45.1247 3.11933 45.0618L4.29125 42.6398C4.32665 42.566 4.34801 42.4854 4.35229 42.4036L5.57059 21.3238C5.69846 21.3404 5.82466 21.3629 5.95695 21.3629H40.9667C41.099 21.3629 41.2252 21.3404 41.353 21.3238L42.5713 42.4036C42.5756 42.4854 42.597 42.566 42.6324 42.6398L43.8043 45.0618C43.8348 45.1247 43.8757 45.182 43.9251 45.2315C44.4208 45.7271 44.6936 46.3863 44.6936 47.087C44.6936 47.7883 44.4208 48.4475 43.9251 48.9431Z" fill="white"/>
</svg>
